<svg id="Layer_1" data-name="Layer 1" xmlns="http://www.w3.org/2000/svg" viewBox="0 0 38.9 51.8"><defs><style>.cls-1{fill:#fff;}</style></defs><title>icon4</title><path class="cls-1" d="M11,48.4a2,2,0,0,1-1.9-2A2,2,0,0,1,11,44.5a2,2,0,1,1,0,3.9Zm0-3.3a1.3,1.3,0,0,0-1.3,1.3A1.3,1.3,0,0,0,11,47.8a1.4,1.4,0,0,0,1.4-1.4A1.3,1.3,0,0,0,11,45.1Z"/><path class="cls-1" d="M38.6,51.8H.3a.3.3,0,0,1-.3-.3V44.2a10,10,0,0,1,10-10h.2a.4.4,0,0,1,.1.3A21.4,21.4,0,0,0,10,44c0,.1,0,.3-.1.3a2.6,2.6,0,0,0-1.3,2.1A2.5,2.5,0,1,0,11,44h-.2c-.1,0-.3,0-.3-.2a20.6,20.6,0,0,1,.4-9.4.2.2,0,0,1,.2-.2h2.4v-2h-6a.2.2,0,0,1-.2-.2c-.1-.1,0-.2,0-.3,1.8-1.5,1.7-5,1.4-6.7-1.3-8.1.5-11.9,1.8-13.5L7.6,4.7a.4.4,0,0,1,.1-.3l.5-.5C8.3,3.7,11.7,0,19.6,0S30.8,3.7,31,3.9l.4.5a.4.4,0,0,1,.1.3l-2.9,7c1.2,1.7,2.9,5.5,1.5,13.3-.2,1.7-.3,5.2,1.4,6.7.1.1.2.2.1.3s-.1.2-.3.2H25.4v2h3.3a.3.3,0,0,1,.3.3v3a.3.3,0,0,1-.3.3h-.1a4.3,4.3,0,0,0-4.2,4.1h.7a1.3,1.3,0,0,1,.1-.6,1.9,1.9,0,0,1,.2-.7,4.1,4.1,0,0,1,.7-1.1l.5-.4.6-.3a3.5,3.5,0,0,1,1.4-.3H30a3.2,3.2,0,0,1,1.4.3l.6.3.5.4a4.4,4.4,0,0,1,.8,1.1,1.9,1.9,0,0,0,.2.7v.6h.7A4.2,4.2,0,0,0,30,37.8h-.1a.3.3,0,0,1-.3-.3V34.6c0-.1,0-.2.1-.2h.2a10,10,0,0,1,9,9.9v7.3A.5.5,0,0,1,38.6,51.8Zm-38-.6H38.3v-7a9.4,9.4,0,0,0-8.1-9.3v2.3A4.8,4.8,0,0,1,34.8,42v.2a.3.3,0,0,1-.3.3H33.2a.3.3,0,0,1-.3-.3v-.8c-.1-.2-.1-.4-.2-.5a2.1,2.1,0,0,0-.6-1l-.4-.3-.5-.3L30,39.1H28.6l-1.1.2-.5.3-.5.3-.6,1a4.3,4.3,0,0,0-.1.5,1.3,1.3,0,0,0-.1.6v.2a.3.3,0,0,1-.3.3H24.1a.3.3,0,0,1-.3-.3V42a4.8,4.8,0,0,1,4.6-4.8V34.8H24.9a.3.3,0,0,1-.1-.2V31.9a.3.3,0,0,1,.3-.3h5.5c-1.8-2.2-1.1-6.5-1-6.7,1.3-7.8-.5-11.5-1.6-13a.2.2,0,0,1,0-.3l2.9-6.9-.4-.4C30.4,4.1,27.1.6,19.6.6S8.7,4.1,8.6,4.3l-.4.4,2.9,6.7a.4.4,0,0,1-.1.3c-1.2,1.5-3,5.1-1.7,13.2.1.2.8,4.5-1.1,6.7h5.6a.3.3,0,0,1,.3.3v2.6a.5.5,0,0,1-.3.3H11.4a20.1,20.1,0,0,0-.4,8.6,3.1,3.1,0,1,1-3,3,3,3,0,0,1,1.4-2.5,21.3,21.3,0,0,1,.2-9.1,9.4,9.4,0,0,0-9,9.4Zm30.2-.7a1.1,1.1,0,0,1-.8-.2,1.2,1.2,0,0,1-.5-.7,1.9,1.9,0,0,1,.2-.7,1.2,1.2,0,0,1,.9-.5,1.1,1.1,0,0,1,.8,0,3.2,3.2,0,0,0,1.7-2.8V42.9a.3.3,0,0,1,.3-.3h.9a.3.3,0,0,1,.3.3v2.7a4.5,4.5,0,0,1-2.5,4.1,1.5,1.5,0,0,1-1.1.8Zm.1-1.6h-.2l-.5.3c0,.1-.1.2-.1.3s.1.3.2.3a.7.7,0,0,0,.6.1c.3,0,.6-.2.6-.4a.2.2,0,0,1,.2-.2A4.1,4.1,0,0,0,34,45.6V43.2h-.3v2.4A3.6,3.6,0,0,1,31.5,49h-.6Zm-3,1.6h-.3a1.2,1.2,0,0,1-1-.8A4.4,4.4,0,0,1,24,45.6V42.9a.3.3,0,0,1,.3-.3h.9a.3.3,0,0,1,.3.3v2.7a3.2,3.2,0,0,0,1.7,2.8,1.1,1.1,0,0,1,.8,0,1.1,1.1,0,0,1,.9.5,1,1,0,0,1,.2.7,1.6,1.6,0,0,1-.4.7A1.2,1.2,0,0,1,27.9,50.5Zm-3.3-7.3v2.4a4.1,4.1,0,0,0,2.3,3.7.2.2,0,0,1,.2.2.7.7,0,0,0,.6.4.6.6,0,0,0,.6-.1.2.2,0,0,0,.2-.2h0a.4.4,0,0,0-.1-.3l-.5-.3h-.8a3.8,3.8,0,0,1-2.2-3.4V43.2Zm-5.2-3.7a4.8,4.8,0,0,1-4.8-5V32.1c0-.1.1-.2.2-.3h.3a9.2,9.2,0,0,0,8.7,0h.3a.4.4,0,0,1,.1.3v2.4A4.8,4.8,0,0,1,19.4,39.5Zm-4.2-7v2a4.3,4.3,0,1,0,8.5,0h0v-2a11.2,11.2,0,0,1-4.3,1A10.7,10.7,0,0,1,15.2,32.5Zm4.2-.2H18.1c-2.3-.4-4.4-1.6-5-2.7a12.3,12.3,0,0,1-.7-3.7v-.3H12c-.9,0-1.7-1.2-1.9-3a2.7,2.7,0,0,1,.4-2.3.9.9,0,0,1,.8-.4c.2,0,.3.1.3.2l.4,1.1c.2-1,.5-2.5.6-3.2s.3-1.4.4-2.3a7.8,7.8,0,0,0,.2-1.4l.2-.3h.3A17.8,17.8,0,0,0,19.4,16a46.6,46.6,0,0,0,5.8.4h.5c.2,0,.3.1.3.2a6,6,0,0,1,.2,1.2h.1c.1.7.4,2.2.6,3.2l.4-1.1c0-.1.1-.2.3-.2a.9.9,0,0,1,.8.4,2.7,2.7,0,0,1,.4,2.3c-.2,1.8-1,3-1.8,3h-.5v.3a12.3,12.3,0,0,1-.7,3.7c-.6,1.1-2.7,2.3-5.1,2.7Zm-6.8-7.4a.3.3,0,0,1,.3.3v.6a10,10,0,0,0,.6,3.4h0a7.2,7.2,0,0,0,4.6,2.4,4.9,4.9,0,0,0,2.4,0,7.5,7.5,0,0,0,4.7-2.4,10,10,0,0,0,.6-3.4v-.6a.3.3,0,0,1,.3-.3H27c.4,0,1-1,1.2-2.5a2.4,2.4,0,0,0-.2-1.8c-.1-.1-.2-.1-.2-.2a8.2,8.2,0,0,1-.8,1.8l-.3.2c-.1-.1-.2-.2-.2-.3l-.8-4.1h0a3,3,0,0,1-.2-1h-.3a33.3,33.3,0,0,1-5.9-.5,16.7,16.7,0,0,1-5.5-1.7c-.1.3-.1.7-.2,1s-.3,1.7-.4,2.3l-.8,4.1c0,.1-.1.2-.2.3l-.3-.2a8.2,8.2,0,0,1-.8-1.8l-.2.2a2.4,2.4,0,0,0-.3,1.8c.3,1.6.9,2.4,1.3,2.5h.7Zm-.5.6h0Zm15-13.7H27a27.2,27.2,0,0,0-7.4-1,26.8,26.8,0,0,0-7.4,1c-.2.1-.4,0-.4-.1L9,5c-.1-.2,0-.3,0-.4s3.2-3.4,10.6-3.4S30,4.5,30.1,4.6s.1.2,0,.4l-2.8,6.7C27.3,11.8,27.2,11.8,27.1,11.8ZM9.6,4.9l2.6,6.3a27,27,0,0,1,7.3-1h.1a27,27,0,0,1,7.3,1l2.6-6.3c-.6-.6-3.7-3.1-9.9-3.1S10.3,4.3,9.6,4.9Z"/><path class="cls-1" d="M20.6,8.8H18.8a.3.3,0,0,1-.3-.3V6.8H16.6a.3.3,0,0,1-.3-.3V4.7a.3.3,0,0,1,.3-.3h1.9V2.7a.3.3,0,0,1,.3-.3h1.8a.3.3,0,0,1,.3.3V4.4h1.6a.3.3,0,0,1,.3.3V6.5a.3.3,0,0,1-.3.3H20.9V8.5A.3.3,0,0,1,20.6,8.8Zm-1.5-.6h1.2V6.5a.3.3,0,0,1,.3-.3h1.6V5H20.6a.3.3,0,0,1-.3-.3V3H19.1V4.7l-.3.3H16.9V6.2h1.9l.3.3Z"/></svg>