<svg id="Layer_1" data-name="Layer 1" xmlns="http://www.w3.org/2000/svg" viewBox="0 0 41.6 47.8"><defs><style>.cls-1{fill:#fff;}</style></defs><title>icon5</title><path class="cls-1" d="M9.6,42a2.2,2.2,0,1,0,2.2-2.2A2.2,2.2,0,0,0,9.6,42Zm2.2-1.6A1.6,1.6,0,1,1,10.2,42,1.6,1.6,0,0,1,11.8,40.4Z"/><path class="cls-1" d="M32.1,29h-.3c-.1.1-.1.1-.1.2v3.2a.3.3,0,0,0,.3.3h.2a4.4,4.4,0,0,1,4.4,4.4h-.7a1.7,1.7,0,0,0-.1-.7,1.9,1.9,0,0,0-.2-.7,4.2,4.2,0,0,0-.8-1.2l-.5-.4-.7-.4a3.2,3.2,0,0,0-1.4-.3H30.6a3.2,3.2,0,0,0-1.4.3l-.7.4-.5.4a4.2,4.2,0,0,0-.8,1.2,1.9,1.9,0,0,0-.2.7,1.7,1.7,0,0,0-.1.7h-.7a4.4,4.4,0,0,1,4.4-4.4h.2a.3.3,0,0,0,.3-.3V29.2a.3.3,0,0,0-.3-.3H27.2V26.1a5.5,5.5,0,0,0,1.5-1.6,9.1,9.1,0,0,0,.8-3.7c1.3-.4,2.3-1.9,2.6-4.2a4.6,4.6,0,0,0-.7-3.4,2.8,2.8,0,0,0-1.2-.8,15.6,15.6,0,0,0,.2-3.1V7.1h0A7.1,7.1,0,0,0,23.3,0H18.4a7.2,7.2,0,0,0-7.2,7.2V9.3a15.5,15.5,0,0,0,.3,3.1,2,2,0,0,0-1.2.8,4.2,4.2,0,0,0-.8,3.4c.4,2.3,1.3,3.8,2.6,4.2.3,2.5.6,3.3.9,3.7a6.7,6.7,0,0,0,1.4,1.6v2.8H11.9l-.3.2a22.1,22.1,0,0,0-.4,10.1c.1.2.2.3.4.3h.1a.1.1,0,0,1,.1-.1A2.6,2.6,0,0,1,14.4,42a2.5,2.5,0,0,1-2.6,2.6A2.6,2.6,0,0,1,9.2,42a2.4,2.4,0,0,1,1.4-2.2c.1-.1.2-.2.1-.4A22.9,22.9,0,0,1,11,29.3c.1-.1,0-.2,0-.3h-.3C4.6,29.2,0,33.8,0,39.6v7.8c0,.2.1.4.3.4h41c.2,0,.3-.2.3-.4V39.6A10.6,10.6,0,0,0,32.1,29ZM41,47.1H.6V39.6a10.2,10.2,0,0,1,9.7-10,22.4,22.4,0,0,0-.2,9.7A3.2,3.2,0,0,0,8.6,42a3.2,3.2,0,0,0,3.2,3.3,3.3,3.3,0,1,0,0-6.5h0a21.7,21.7,0,0,1,.4-9.3h2.5c.2,0,.4-.1.4-.3V25.9l-.2-.3a4.7,4.7,0,0,1-1.4-1.4c-.1-.2-.5-.8-.8-3.7,0-.1-.1-.2-.2-.3s-2-1.6-2.3-3.6a3.5,3.5,0,0,1,.6-3,2,2,0,0,1,1.1-.6h.2a.4.4,0,0,0,.1-.3,17.5,17.5,0,0,1-.4-3.3V7.2A6.7,6.7,0,0,1,18.4.6h4.9a6.6,6.6,0,0,1,6.5,6.5h0V9.3a17.6,17.6,0,0,1-.3,3.3v.3h.3a2.4,2.4,0,0,1,1.1.6,3.9,3.9,0,0,1,.6,3c-.3,2-1.2,3.4-2.3,3.6s-.3.2-.3.3c-.3,2.9-.7,3.5-.8,3.7a3.1,3.1,0,0,1-1.4,1.4.4.4,0,0,0-.1.3v3.3c0,.1,0,.2.1.2s.1.1.2.1h3.6v2.7a5.1,5.1,0,0,0-5,5.1v.2c0,.2.2.3.4.3h1.3a.3.3,0,0,0,.3-.3v-.2c0-.2.1-.5.1-.7a.8.8,0,0,1,.2-.5,3.3,3.3,0,0,1,.6-1l.5-.4.5-.3a2.5,2.5,0,0,1,1.2-.2h1.6a2.5,2.5,0,0,1,1.2.2l.5.3.5.4a2.1,2.1,0,0,1,.6,1,.8.8,0,0,1,.2.5,1.7,1.7,0,0,1,.1.7v.2a.3.3,0,0,0,.3.3H37a.3.3,0,0,0,.3-.3v-.2a5.1,5.1,0,0,0-5-5.1V29.7c5.2.9,8.7,4.9,8.7,9.9Z"/><path class="cls-1" d="M27.6,23.9a12.5,12.5,0,0,0,.8-4v-.2h.5c.9,0,1.7-1.3,2-3.2a3.1,3.1,0,0,0-.5-2.5,1.3,1.3,0,0,0-.9-.4c-.1,0-.3.1-.3.2a8.3,8.3,0,0,1-.4,1.2c-.2-1.1-.5-2.7-.7-3.5a8.3,8.3,0,0,0-.2-1.3q-.1-.3-.3-.3a45,45,0,0,1-6.8-.5,15.1,15.1,0,0,1-6.1-2.1h-.3l-.2.3c-.2,1.4-.5,2.9-.7,3.8h0c-.1.8-.4,2.4-.6,3.5a3.4,3.4,0,0,1-.4-1.2.5.5,0,0,0-.4-.2,1.3,1.3,0,0,0-.9.4,3.2,3.2,0,0,0-.4,2.5c.2,1.9,1.1,3.2,2,3.2h.4v.3a13.6,13.6,0,0,0,.7,4c.8,1.3,3.6,3,6.8,3S26.9,25.2,27.6,23.9Zm-13-.3a13.4,13.4,0,0,1-.7-3.7v-.6a.3.3,0,0,0-.3-.3h-.7c-.5,0-1.2-.9-1.4-2.6a2.9,2.9,0,0,1,.3-2h.2a11.6,11.6,0,0,0,.8,1.9c.1.1.2.2.4.1l.2-.2s.6-3.3.9-4.4v-.2c.1-.8.4-2.1.6-3.4A17,17,0,0,0,20.7,10a57.6,57.6,0,0,0,6.6.6c.1.4.1.7.2,1.1l.8,4.4.3.2a.2.2,0,0,0,.3-.1,11.6,11.6,0,0,0,.8-1.9h.2a2.1,2.1,0,0,1,.3,2c-.2,1.6-.8,2.6-1.3,2.7h-.7c-.2,0-.4.1-.4.3v.6a13.4,13.4,0,0,1-.7,3.7c-.7,1.1-3.4,2.7-6.3,2.7S15.3,24.7,14.6,23.6Z"/><path class="cls-1" d="M36.8,37.9h-1a.3.3,0,0,0-.3.3v3a3.1,3.1,0,0,1-1.9,2.9,2.1,2.1,0,0,0-.8,0,1.5,1.5,0,0,0-1,.6,1.9,1.9,0,0,0-.2.8l.5.7.8.2h.3a1.4,1.4,0,0,0,1.1-.8,5,5,0,0,0,2.8-4.4v-3A.3.3,0,0,0,36.8,37.9Zm-.4,3.3a4.2,4.2,0,0,1-2.5,3.9v.2a1.3,1.3,0,0,1-.7.5c-.2,0-.5,0-.6-.2a.2.2,0,0,1-.2-.2c0-.2,0-.3.1-.4l.5-.3h.9a4,4,0,0,0,2.3-3.6V38.5h.3Z"/><path class="cls-1" d="M26,26.6a.2.2,0,0,0-.2-.2h-.3a10.8,10.8,0,0,1-4.7,1.1,11.5,11.5,0,0,1-4.7-1.1h-.3c-.1,0-.1.1-.1.2v2.6a5.2,5.2,0,0,0,5.1,5.4A5.3,5.3,0,0,0,26,29.2Zm-.7,2.6a4.5,4.5,0,0,1-4.5,4.7,4.5,4.5,0,0,1-4.5-4.7v-2a11.7,11.7,0,0,0,9,0Z"/><path class="cls-1" d="M30,44.1a2.1,2.1,0,0,0-.8,0,3.3,3.3,0,0,1-1.9-2.9v-3a.3.3,0,0,0-.3-.3h-.9c-.2,0-.4.1-.4.3v3a5,5,0,0,0,2.8,4.4,1.4,1.4,0,0,0,1.1.8h.3l.8-.2a1.5,1.5,0,0,0,.5-.7,1.9,1.9,0,0,0-.2-.8A1.5,1.5,0,0,0,30,44.1Zm.3,1.5c-.1.2-.4.2-.6.2h0a1.3,1.3,0,0,1-.7-.5c0-.1,0-.2-.1-.2a4.4,4.4,0,0,1-2.5-3.9V38.5h.3v2.7A4,4,0,0,0,29,44.8h.9l.5.3c.1.1.1.2.1.4A.2.2,0,0,1,30.3,45.6Z"/></svg>