<svg id="Layer_1" data-name="Layer 1" xmlns="http://www.w3.org/2000/svg" viewBox="0 0 30.5 27.5"><defs><style>.cls-1{fill:#fff;}</style></defs><title>icon6</title><path class="cls-1" d="M13.6,12.4a6.8,6.8,0,0,0,2.3-6.1C15.5,3.1,12.6.5,9,.1a8.4,8.4,0,0,0-6.7,2A7,7,0,0,0,.1,8.2C.5,11.4,3.4,14,7,14.4H8A8.6,8.6,0,0,0,13.6,12.4ZM7,14A7.2,7.2,0,0,1,.6,8.1,6.3,6.3,0,0,1,2.7,2.4,8.2,8.2,0,0,1,8,.5H9a7.1,7.1,0,0,1,6.4,5.9A6.4,6.4,0,0,1,13.3,12,8.3,8.3,0,0,1,7,14Z"/><path class="cls-1" d="M12.2,5.4H10v-2a.6.6,0,0,0-.6-.5H6.6a.6.6,0,0,0-.6.5v2H3.8a.6.6,0,0,0-.6.6V8.5a.6.6,0,0,0,.6.5H6v2a.6.6,0,0,0,.6.5H9.4a.6.6,0,0,0,.6-.5v-2h2.2a.6.6,0,0,0,.6-.5V6A.6.6,0,0,0,12.2,5.4ZM6,8.6H3.7V6H6a.5.5,0,0,0,.5-.5v-2h3v2a.5.5,0,0,0,.5.5h2.3V8.5H10a.5.5,0,0,0-.5.5v2h-3v-2A.5.5,0,0,0,6,8.6Z"/><path class="cls-1" d="M14.3,19.4h.1a.6.6,0,0,0,.1-.7l-.3-.4a1.5,1.5,0,0,0-2.1-.4,15.1,15.1,0,0,0-4.6,3.5,1.3,1.3,0,0,0,0,1.8l.5.5a.5.5,0,0,0,.4.2l.4-.2Zm-.3-.3L8.5,23.4H8.3l-.5-.5a1.1,1.1,0,0,1,.1-1.3,14.9,14.9,0,0,1,4.4-3.3l.7-.2a.9.9,0,0,1,.8.4l.3.4C14.1,19,14.1,19,14,19.1Z"/><path class="cls-1" d="M20.7,10.4h.7a.7.7,0,0,0,.6-.4l2.9-6h0a.5.5,0,0,0,0-.5q0-.2-.3-.3l-.5-.2a1.6,1.6,0,0,0-1.9.5,13.8,13.8,0,0,0-2.5,5,1.4,1.4,0,0,0,.2,1.1A1.6,1.6,0,0,0,20.7,10.4Zm-.5-1.6h0A12.8,12.8,0,0,1,22.6,4a1.2,1.2,0,0,1,.9-.5h.4l.5.2h.1l-3,6h-.6a.9.9,0,0,1-.6-.4A1.9,1.9,0,0,1,20.2,8.8Z"/><path class="cls-1" d="M27.1,4l-.4-.2h-.9a1.5,1.5,0,0,0-.6.5l-3,6.1c-.1.4-.1.8.2,1a1.1,1.1,0,0,1,.1.5,12.1,12.1,0,0,1-2.4,4.2,11.9,11.9,0,0,1-3.9,3.3h-.5a.9.9,0,0,0-1,.1L9.3,23.8a1.3,1.3,0,0,0-.5.9,1.5,1.5,0,0,0,.4.9,7.4,7.4,0,0,0,4.6,1.9,3.5,3.5,0,0,0,1.4-.3,18,18,0,0,0,3.9-2.3,39.2,39.2,0,0,0,3.7-3.4l2-2.2c.6-.8,1.2-1.5,1.7-2.3a25.7,25.7,0,0,0,2.6-4.1,15.3,15.3,0,0,0,1.4-4.1C30.8,7,28.9,4.8,27.1,4ZM13.8,27a6.7,6.7,0,0,1-4.3-1.8.7.7,0,0,1-.3-.5.5.5,0,0,1,.4-.5L15,19.9h1.4a14,14,0,0,0,4.1-3.4A14.5,14.5,0,0,0,23,11.9a1.1,1.1,0,0,0-.3-.7.4.4,0,0,1,0-.5l2.9-6.2.4-.3h.5l.4.2c1.7.7,3.4,2.7,3.1,4.3a10.7,10.7,0,0,1-1.4,4,43.6,43.6,0,0,1-2.4,4.1c-.6.7-1.1,1.5-1.8,2.2l-1.9,2.2a38,38,0,0,1-3.7,3.3A15.4,15.4,0,0,1,15,26.8Z"/></svg>