<svg id="Layer_1" data-name="Layer 1" xmlns="http://www.w3.org/2000/svg" viewBox="0 0 26.9 35.2"><defs><style>.cls-1{fill:#fff;}</style></defs><title>icon7</title><path class="cls-1" d="M13.9,30.7h-.2l-4-4a.2.2,0,0,1,0-.3.3.3,0,0,1,.4,0l3.8,3.8,5.2-5.2V15.6l-2.4-2.5a.2.2,0,0,1,0-.4H17l2.6,2.6v9.9l-5.5,5.4Z"/><path class="cls-1" d="M19.1,31.4h-.2a.3.3,0,0,1,0-.4l4.4-4.3V13.8l-3.7-3.6a.3.3,0,0,1,0-.4c.1-.1.2-.1.4,0l3.7,3.8h.1v13c0,.1,0,.2-.1.2l-4.4,4.4Z"/><path class="cls-1" d="M8.7,31.4H8.5L3.8,26.6a.2.2,0,0,1,0-.3c.2-.1.3-.1.4,0l4.7,4.6a.3.3,0,0,1,0,.4Z"/><path class="cls-1" d="M26.6,35.2H1.1c0-.1-.1-.1,0-.2l.5-2.1A2.6,2.6,0,0,1,4,30.9H23.9a2.6,2.6,0,0,1,2.4,1.9l.6,2.1c0,.1,0,.1-.1.2S26.7,35.2,26.6,35.2ZM1.7,34.7H26.3L25.8,33a2.1,2.1,0,0,0-1.9-1.6H4A2.1,2.1,0,0,0,2.1,33Z"/><path class="cls-1" d="M23.4,5.1h-.1a.2.2,0,0,1,0-.3L25.9,2,24.6.6,21.9,3.3a.3.3,0,0,1-.4-.4L24.4.1h.4l1.7,1.7c0,.1.1.1.1.2s-.1.1-.1.2L23.6,5Z"/><path class="cls-1" d="M10.6,18c-.1,0-.2,0-.2-.1L8.7,16.2c-.1-.1-.1-.1-.1-.2v-.2l.7-.7h.4a.2.2,0,0,1,0,.3l-.6.6,1.4,1.4.5-.6a.3.3,0,1,1,.4.4l-.8.7A.1.1,0,0,1,10.6,18Z"/><path class="cls-1" d="M12.6,17.4h-.2L9.2,14.1a.2.2,0,0,1,0-.3l11-11h.4L23.7,6c.1.1.1.1.1.2v.2L12.8,17.3ZM9.8,14l2.8,2.8L23.2,6.2,20.4,3.4Z"/><path class="cls-1" d="M10.7,25.8H.3a.3.3,0,0,1-.3-.3v-1c0-.1.1-.2.3-.2H10.7a.2.2,0,0,1,.2.2v1C10.9,25.7,10.8,25.8,10.7,25.8ZM.5,25.3h9.9v-.5H.5Z"/><path class="cls-1" d="M14,34.5a1.4,1.4,0,1,1,0-2.8,1.4,1.4,0,0,1,0,2.8Zm0-2.3a.9.9,0,1,0,.9.9A.9.9,0,0,0,14,32.2Z"/><path class="cls-1" d="M16.3,12a1.8,1.8,0,0,1,0-3.6,1.8,1.8,0,0,1,0,3.6Zm0-3A1.2,1.2,0,0,0,15,10.2a1.3,1.3,0,0,0,1.3,1.3,1.3,1.3,0,0,0,1.2-1.3A1.2,1.2,0,0,0,16.3,9Z"/></svg>