<svg id="Layer_1" data-name="Layer 1" xmlns="http://www.w3.org/2000/svg" xmlns:xlink="http://www.w3.org/1999/xlink" viewBox="0 0 876.5 934.8"><defs><style>.cls-1,.cls-3{fill:#ecf5f5;}.cls-1,.cls-10,.cls-11,.cls-15,.cls-2,.cls-5,.cls-7{stroke:#42210b;stroke-width:16.01px;}.cls-1,.cls-11,.cls-2{stroke-miterlimit:10;}.cls-2,.cls-6{fill:#fff;}.cls-4{clip-path:url(#clip-path);}.cls-5{fill:#f3cf62;}.cls-15,.cls-5,.cls-7{stroke-linecap:round;}.cls-10,.cls-15,.cls-5,.cls-7{stroke-linejoin:round;}.cls-14,.cls-7{fill:#b3b3b3;}.cls-8{fill:#42210b;}.cls-15,.cls-9{fill:#eb463f;}.cls-10,.cls-11{fill:none;}.cls-12{fill:gray;}.cls-13{clip-path:url(#clip-path-2);}</style><clipPath id="clip-path"><circle class="cls-1" cx="438.2" cy="462.6" r="430.2"/></clipPath><clipPath id="clip-path-2"><path class="cls-2" d="M170.4,8h0a52.1,52.1,0,0,0-52.1,52.1v609A52.1,52.1,0,0,0,147,715.6a19,19,0,0,1,10.6,18.6v6c0,8.8,5.5,10,12.8,10s13.8-2.4,13.8-9.1c0,0-.1-4.6-.1-5.2A23.2,23.2,0,0,1,196,714.4a52,52,0,0,0,26.5-45.3V60.1A52.1,52.1,0,0,0,170.4,8Z"/></clipPath></defs><title>icon005</title><circle class="cls-3" cx="438.2" cy="462.6" r="430.2"/><g class="cls-4"><rect class="cls-5" x="266.6" y="208.7" width="556.2" height="718.09"/><rect class="cls-6" x="318.9" y="259.5" width="453.9" height="613.58"/><path class="cls-7" d="M399,182.2v58.1h47.9c21.5,32.9,62.4,55.1,109.2,55.1s87.7-22.2,109.3-55.1h47.8V182.2Z"/><path class="cls-8" d="M427.4,216.7H684.2c10.3,0,10.3-16,0-16H427.4c-10.3,0-10.3,16,0,16Z"/><rect class="cls-9" x="683" y="295.4" width="29.2" height="84.11"/><rect class="cls-9" x="683.9" y="295.4" width="29.2" height="84.11" transform="translate(361 1035.9) rotate(-90)"/><path class="cls-8" d="M396.9,380.4H625.1c10.3,0,10.3-16,0-16H396.9c-10.3,0-10.3,16,0,16Z"/><path class="cls-8" d="M392.9,470.1H690.3c10.3,0,10.3-16,0-16H392.9c-10.3,0-10.3,16,0,16Z"/><path class="cls-8" d="M396.9,571.9H690.3c10.3,0,10.3-16,0-16H396.9c-10.3,0-10.3,16,0,16Z"/><rect class="cls-10" x="372.9" y="316.4" width="38.9" height="38.88"/><rect class="cls-10" x="374.3" y="506.6" width="38.9" height="38.88"/><rect class="cls-10" x="371.5" y="407.3" width="38.9" height="38.88"/></g><circle class="cls-11" cx="438.2" cy="462.6" r="430.2"/><path class="cls-12" d="M162.4,750.2V790c0,10.3,16,10.3,16,0V750.2c0-10.3-16-10.4-16,0Z"/><path class="cls-6" d="M170.4,8h0a52.1,52.1,0,0,0-52.1,52.1v609A52.1,52.1,0,0,0,147,715.6a19,19,0,0,1,10.6,18.6v6c0,8.8,5.5,10,12.8,10s13.8-2.4,13.8-9.1c0,0-.1-4.6-.1-5.2A23.2,23.2,0,0,1,196,714.4a52,52,0,0,0,26.5-45.3V60.1A52.1,52.1,0,0,0,170.4,8Z"/><g class="cls-13"><path class="cls-14" d="M178.4,285.4V75.7c0-10.3-16-10.3-16,0V285.4c0,10.3,16,10.3,16,0Z"/><path class="cls-9" d="M162.4,282.7V814.2c0,10.3,16,10.3,16,0V282.7c0-10.3-16-10.4-16,0Z"/></g><path class="cls-11" d="M170.4,8h0a52.1,52.1,0,0,0-52.1,52.1v609A52.1,52.1,0,0,0,147,715.6a19,19,0,0,1,10.6,18.6v6c0,8.8,5.5,10,12.8,10s13.8-2.4,13.8-9.1c0,0-.1-4.6-.1-5.2A23.2,23.2,0,0,1,196,714.4a52,52,0,0,0,26.5-45.3V60.1A52.1,52.1,0,0,0,170.4,8Z"/><path class="cls-8" d="M139.9,501.5h11.4a8.1,8.1,0,1,0,0-16.1H139.9c-4.2,0-8.2,3.7-8,8a8.2,8.2,0,0,0,8,8.1Z"/><path class="cls-8" d="M189.9,501.5h11.5c4.2,0,8.2-3.7,8-8.1a8.2,8.2,0,0,0-8-8H189.9c-4.2,0-8.2,3.7-8,8a8.2,8.2,0,0,0,8,8.1Z"/><path class="cls-8" d="M139.7,616.2h11.4c4.2,0,8.2-3.7,8-8a8.2,8.2,0,0,0-8-8H139.7c-4.2,0-8.2,3.7-8.1,8a8.2,8.2,0,0,0,8.1,8Z"/><path class="cls-8" d="M189.7,616.2h11.4c4.2,0,8.2-3.7,8.1-8a8.2,8.2,0,0,0-8.1-8H189.7c-4.2,0-8.2,3.7-8,8a8.1,8.1,0,0,0,8,8Z"/><path class="cls-8" d="M139.7,411.9h11.4c4.2,0,8.2-3.7,8-8a8.1,8.1,0,0,0-8-8H139.7c-4.2,0-8.2,3.6-8.1,8a8.2,8.2,0,0,0,8.1,8Z"/><path class="cls-8" d="M189.7,411.9h11.4c4.2,0,8.2-3.7,8.1-8a8.2,8.2,0,0,0-8.1-8H189.7c-4.2,0-8.2,3.6-8,8a8.2,8.2,0,0,0,8,8Z"/><path class="cls-8" d="M139.7,322.3h11.4c4.2,0,8.2-3.7,8-8a8.1,8.1,0,0,0-8-8H139.7c-4.2,0-8.2,3.7-8.1,8a8.2,8.2,0,0,0,8.1,8Z"/><path class="cls-8" d="M189.7,322.3h11.4c4.2,0,8.2-3.7,8.1-8a8.2,8.2,0,0,0-8.1-8H189.7c-4.2,0-8.2,3.7-8,8a8.2,8.2,0,0,0,8,8Z"/><path class="cls-8" d="M139.7,215.5h11.4c4.2,0,8.2-3.7,8-8a8.2,8.2,0,0,0-8-8H139.7c-4.2,0-8.2,3.7-8.1,8a8.2,8.2,0,0,0,8.1,8Z"/><path class="cls-8" d="M189.7,215.5h11.4c4.2,0,8.2-3.7,8.1-8a8.2,8.2,0,0,0-8.1-8H189.7c-4.2,0-8.2,3.7-8,8a8.2,8.2,0,0,0,8,8Z"/><path class="cls-8" d="M139.7,106.7h11.4c4.2,0,8.2-3.7,8-8a8.1,8.1,0,0,0-8-8H139.7c-4.2,0-8.2,3.6-8.1,8a8.2,8.2,0,0,0,8.1,8Z"/><path class="cls-8" d="M189.7,106.7h11.4c4.2,0,8.2-3.7,8.1-8a8.2,8.2,0,0,0-8.1-8H189.7c-4.2,0-8.2,3.6-8,8a8.2,8.2,0,0,0,8,8Z"/><path class="cls-8" d="M385.7,531.3a135.7,135.7,0,0,0,27.5,23.8c3.1,2,7.2,1.1,9.7-1.2L460,520.1c7.7-7-3.7-18.2-11.3-11.3l-37.1,33.8,9.7-1.3A120.3,120.3,0,0,1,397,520c-6.8-7.8-18.1,3.6-11.3,11.3Z"/><path class="cls-8" d="M399.8,687.5H694.4c10.3,0,10.3-16,0-16H399.8c-10.3,0-10.3,16,0,16Z"/><path class="cls-8" d="M559.8,763.8c4.4,11.9,15.5,18.6,28,19.1,7.1.3,14.1-1.9,20.5-4.8a81.1,81.1,0,0,0,9.2-4.9l4.3-2.8c.8-.4,2.7-.9,1.5-1.1,1,.2,3.2,2.2,4.1,2.8a39.9,39.9,0,0,0,4.4,2.7,35.2,35.2,0,0,0,9.9,3.4c6.9,1,12.9-1.4,18.7-4.9,2.2-1.3,4.5-3.1,7-3.8s6.8.4,10.2.3a15.9,15.9,0,0,0,15.3-10.4c1.6-4-1.8-8.8-5.6-9.9s-8.2,1.6-9.9,5.6c1.6-3.8,1-.7.3-1.3a23.6,23.6,0,0,0-4-.2,28.4,28.4,0,0,0-9.2.1c-4.7,1-8.7,3.7-12.8,6.2s-7.2,3.3-11.8,1.1-9.2-7.5-15.2-7.8-10,2.9-14.6,5.7-9.2,5.5-14.4,7-17.6,1.5-20.5-6.3c-1.5-4.1-5.4-6.8-9.9-5.6s-7.1,5.8-5.5,9.8Z"/><rect class="cls-15" x="532" y="414.2" width="71.5" height="400.22" transform="translate(-213.7 316) rotate(-26.4)"/><polygon class="cls-7" points="510.9 419.1 446.8 450.9 454.3 385.5 510.9 419.1"/><rect class="cls-5" x="653.8" y="790.4" width="32.7" height="60.31" transform="translate(-294.7 382.9) rotate(-26.4)"/><path class="cls-8" d="M644,624l55,110.9c4.6,9.3,18.4,1.2,13.8-8.1l-55-110.9c-4.5-9.2-18.4-1.1-13.8,8.1Z"/><path class="cls-8" d="M699,734.9c4.4,10.4-6,15.9-13.7,19.6-9.3,4.5-1.2,18.3,8.1,13.8,7.7-3.7,15.4-8.2,19.6-16.1s3.3-17.1-.2-25.4c-1.7-3.9-7.5-4.8-10.9-2.8s-4.6,6.9-2.9,10.9Z"/><path class="cls-8" d="M432.6,365.6l17.1,34.5c4.5,9.2,18.3,1.1,13.8-8.1l-17.1-34.4c-4.6-9.3-18.4-1.2-13.8,8Z"/></svg>