<svg id="Layer_1" data-name="Layer 1" xmlns="http://www.w3.org/2000/svg" xmlns:xlink="http://www.w3.org/1999/xlink" viewBox="0 0 951.4 925.8"><defs><style>.cls-1,.cls-3{fill:#e7f2f5;}.cls-1,.cls-15,.cls-16,.cls-17,.cls-18,.cls-19,.cls-2,.cls-5{stroke:#42210b;}.cls-1,.cls-15,.cls-16,.cls-19,.cls-2,.cls-5{stroke-linecap:round;stroke-linejoin:round;}.cls-1,.cls-11,.cls-15,.cls-16,.cls-17,.cls-18,.cls-19,.cls-2,.cls-5{stroke-width:16.01px;}.cls-2,.cls-6{fill:#fff;}.cls-4{clip-path:url(#clip-path);}.cls-11,.cls-5{fill:none;}.cls-7{clip-path:url(#clip-path-2);}.cls-8{fill:#eb463f;}.cls-17,.cls-9{fill:#008eae;}.cls-10{fill:#42210b;}.cls-11{stroke:#ba2b39;}.cls-11,.cls-17,.cls-18{stroke-miterlimit:10;}.cls-12{fill:gray;}.cls-13{fill:#333;}.cls-14{fill:#999;}.cls-15{fill:#4d4d4d;}.cls-16{fill:#abd3da;}.cls-18{fill:#f3cf62;}.cls-19{fill:#277c51;}</style><clipPath id="clip-path"><circle class="cls-1" cx="513.2" cy="487.6" r="430.2"/></clipPath><clipPath id="clip-path-2"><path class="cls-2" d="M853.3,642.8,841,722.7H792.5a67.3,67.3,0,0,0-134.5,0H389.6a67.2,67.2,0,0,0-133.3,0H173.1V449.5H635.7l84.2,136.6h76.8A56.6,56.6,0,0,1,853.3,642.8Z"/></clipPath></defs><title>icon004</title><circle class="cls-3" cx="513.2" cy="487.6" r="430.2"/><g class="cls-4"><path class="cls-2" d="M347,156a56.5,56.5,0,0,0-16.6,2.4,77.6,77.6,0,0,0-130.7,15.5,41.7,41.7,0,0,0-7.1-.7A40.7,40.7,0,1,0,208,251.6a77.8,77.8,0,0,0,111,13.1,58.8,58.8,0,0,0,28,7.1c32.3,0,58.5-25.9,58.5-57.9S379.3,156,347,156Z"/></g><circle class="cls-5" cx="513.2" cy="487.6" r="430.2"/><path class="cls-6" d="M853.3,642.8,841,722.7H792.5a67.3,67.3,0,0,0-134.5,0H389.6a67.2,67.2,0,0,0-133.3,0H173.1V449.5H635.7l84.2,136.6h76.8A56.6,56.6,0,0,1,853.3,642.8Z"/><g class="cls-7"><rect class="cls-8" x="173.1" y="643.8" width="540.8" height="22.23"/><path class="cls-9" d="M179.9,640.6H708.1c10.3,0,10.3-16,0-16H179.9c-10.3,0-10.3,16,0,16Z"/><path class="cls-10" d="M369.5,511.8l30.4,30.4c7.3,7.3,18.7-4,11.4-11.3l-30.5-30.4c-7.3-7.3-18.6,4-11.3,11.3Z"/><rect class="cls-11" x="153.6" y="574.5" width="33.6" height="80.75" rx="13.6"/><path class="cls-12" d="M553.3,470.9V721.7a1.6,1.6,0,0,0,3.2,0V470.9c0-2-3.2-2-3.2,0Z"/><path class="cls-12" d="M562.9,469.9V717.4a1.6,1.6,0,0,0,3.2,0V469.9a1.6,1.6,0,0,0-3.2,0Z"/><path class="cls-12" d="M565.6,472.5h77.9c2,0,2-3.2,0-3.2H565.6a1.6,1.6,0,0,0,0,3.2Z"/><path class="cls-12" d="M411.4,721.7V473.8a1.6,1.6,0,0,0-3.2,0V721.7a1.6,1.6,0,0,0,3.2,0Z"/><path class="cls-12" d="M552.8,470.4h-143a1.6,1.6,0,0,0,0,3.2h143c2,0,2-3.2,0-3.2Z"/><path class="cls-13" d="M534.3,600.1a122,122,0,0,0,.3,17.1,4.7,4.7,0,0,0,1.2,3,4.4,4.4,0,0,0,3,1.2c2.2-.1,4.5-1.8,4.3-4.2a139.4,139.4,0,0,1-.2-17.1,4.3,4.3,0,0,0-4.3-4.3,4.4,4.4,0,0,0-4.3,4.3Z"/><path class="cls-13" d="M575.5,600.1v17.7a4.3,4.3,0,0,0,4.3,4.3,4.4,4.4,0,0,0,4.3-4.3V600.1a4.3,4.3,0,0,0-4.3-4.3,4.4,4.4,0,0,0-4.3,4.3Z"/><rect class="cls-14" x="811" y="574.3" width="71.5" height="79.17" rx="35.7"/></g><path class="cls-5" d="M853.3,642.8,841,722.7H792.5a67.3,67.3,0,0,0-134.5,0H389.6a67.2,67.2,0,0,0-133.3,0H173.1V449.5H635.7l84.2,136.6h76.8A56.6,56.6,0,0,1,853.3,642.8Z"/><circle class="cls-15" cx="323.6" cy="737.7" r="53.4"/><circle class="cls-2" cx="323.6" cy="737.7" r="26.7"/><circle class="cls-15" cx="725.7" cy="730.2" r="53.4"/><circle class="cls-2" cx="725.7" cy="730.2" r="26.7"/><rect class="cls-16" x="203.9" y="501.9" width="342.4" height="78.87"/><polygon class="cls-16" points="687.8 586.1 568.9 578.1 568.9 501.9 631.3 501.9 687.8 586.1"/><path class="cls-10" d="M405,508.4v65.9c0,10.2,16,10.3,16,0V508.4c0-10.3-16-10.3-16,0Z"/><path class="cls-10" d="M288.9,508.4v65.9c0,10.2,16,10.3,16,0V508.4c0-10.3-16-10.3-16,0Z"/><rect class="cls-17" x="202.1" y="398.9" width="34.8" height="50.61" rx="11.9"/><rect class="cls-17" x="552.9" y="398.9" width="59.2" height="50.61" rx="12.8"/><path class="cls-8" d="M216.4,465.6v22.8a2.7,2.7,0,0,0,5.4,0V465.6a2.7,2.7,0,1,0-5.4,0Z"/><path class="cls-8" d="M239.9,469.7a20.2,20.2,0,0,1,3.2-1.1l.8-.2h.3c.1,0,.7-.1.2-.1H247c.6.2-.4-.2-.1,0l.7.4c.5.3-.3-.3-.1-.1l.3.3.3.3s-.4-.6-.1-.1l.3.5c.3.4,0-.1,0-.1s.1.3.1.4a2.5,2.5,0,0,1,.2.7c.1.6,0-.5,0-.1v.4a9.7,9.7,0,0,1,0,1.7s.1-.7,0-.2a.4.4,0,0,1-.1.3c0,.3-.1.5-.1.8a10.4,10.4,0,0,1-.6,1.6.8.8,0,0,1-.1.4c-.1.1-.1.6,0,0l-.3.7c-.3.5-.5,1-.8,1.6l-.9,1.4-.5.7-.3.3h.1a.3.3,0,0,0-.1.2,24.7,24.7,0,0,1-2.8,2.8l-.6.6-.4.3h0l-1.8,1.2a2.9,2.9,0,0,0-1.2,3,2.8,2.8,0,0,0,2.6,1.9,139.5,139.5,0,0,0,18.2-2.4,2.7,2.7,0,0,0,1.9-3.3,2.8,2.8,0,0,0-3.3-1.9c-2.9.6-5.7,1.1-8.6,1.5h-.5l-1.1.2-2.2.2-4.4.4,1.3,5a26.6,26.6,0,0,0,10.9-13,13.4,13.4,0,0,0,.8-7.9,7.7,7.7,0,0,0-6.1-5.9c-3.1-.6-6.2.2-9.1,1.3a2.8,2.8,0,0,0-1.9,3.3,2.7,2.7,0,0,0,3.3,1.9Z"/><path class="cls-8" d="M278.2,464.5a6.9,6.9,0,0,0-7.9,1.5c-2.1,2.1-2.7,5.1-2.8,7.9a20.4,20.4,0,0,0,.8,7.8,9.6,9.6,0,0,0,4.7,5.6,11.6,11.6,0,0,0,12.7-1.7c3.7-3.2,4.7-8.8,3.4-13.4a12.8,12.8,0,0,0-4.7-6.9,8.2,8.2,0,0,0-8.5-1,2.7,2.7,0,0,0-.9,3.7,2.6,2.6,0,0,0,3.6.9c.4-.2-.5.2.1,0h.6c-.6.2-.5,0-.3,0h.6c.3,0-.6-.1-.1,0l.6.2h.1a5.2,5.2,0,0,1,1.2.7h.2c.3.2-.4-.3-.1-.1l.5.5.4.4.3.3c.2.3-.3-.4-.1-.1l.7,1.1.3.6c0,.1,0,.2.1.2s-.1-.2,0,0l.3,1.2c.1.2.1.4.2.6v.3c0,.1.1.6.1.2s0,.2,0,.3v2c-.1.5,0-.2,0-.2v.4a1.3,1.3,0,0,1-.1.6,5.6,5.6,0,0,1-.4,1.2v.3s.3-.6.1-.1l-.3.5c-.1.1-.5,1.1-.7,1.1h.1l-.2.2-.4.4c-.1.1-.4.3-.5.5s.5-.4.2-.2l-.3.2-.9.5-.3.2s.5-.2.3-.2l-.7.3-1.1.2h-2.4l-.5-.2h-.5l-.6-.4h-.2c-.2-.1-.1-.2.2.2s-.3-.3-.4-.4l-.4-.4-.2-.2c.1,0,.4.5.2.2l-.4-.7c-.1-.1-.4-.7-.3-.4s-.1-.4-.1-.5a1.9,1.9,0,0,1-.2-.7c-.1-.3-.1-.5-.2-.8s0,.3,0-.2a8.6,8.6,0,0,1-.1-1.6c0-1.2,0-2.4.1-3.5v-.5c0-.4-.1.7,0,0s.1-.5.2-.8.1-.6.2-.8.1-.3.2-.4-.2.3-.1,0l.5-.7c.2-.3-.1.2-.1.2s.2-.3.2-.3l.3-.3c.2-.2-.4.3-.1.1l.6-.4h0c-.4.2.1,0,.2,0h.3c.4-.1-.1.1-.2,0h.5c.1.1.6.3-.1,0a2.7,2.7,0,0,0,3.7-1,2.6,2.6,0,0,0-1-3.6Z"/><path class="cls-8" d="M596.7,614.9h18.1a8.2,8.2,0,0,0,5.7-2.4,7.9,7.9,0,0,0,2.3-5.6,8.1,8.1,0,0,0-2.3-5.7,8.6,8.6,0,0,0-5.7-2.3H596.7a8.6,8.6,0,0,0-5.7,2.3,8.1,8.1,0,0,0-2.3,5.7,8.3,8.3,0,0,0,2.3,5.6,8.2,8.2,0,0,0,5.7,2.4Z"/><path class="cls-8" d="M597.8,596.4v21a7.9,7.9,0,0,0,2.3,5.6,8.2,8.2,0,0,0,5.7,2.4,8.2,8.2,0,0,0,8-8v-21a8.2,8.2,0,0,0-2.4-5.7,8.1,8.1,0,0,0-11.3,0,8.6,8.6,0,0,0-2.3,5.7Z"/><circle class="cls-18" cx="749.9" cy="158.6" r="82.4"/><path class="cls-10" d="M746.4,7.7V45.4c0,10.3,16,10.4,16,0V7.7c0-10.3-16-10.3-16,0Z"/><path class="cls-10" d="M749.6,271.5v41.4c0,10.3,16,10.4,16,0V271.5c0-10.3-16-10.3-16,0Z"/><path class="cls-10" d="M862.3,161.1h40.6c10.3,0,10.3-16,0-16H862.3c-10.3,0-10.3,16,0,16Z"/><path class="cls-10" d="M591.1,178.7h44.8c10.3,0,10.4-16,0-16H591.1c-10.3,0-10.3,16,0,16Z"/><path class="cls-10" d="M629.5,54.7l32,32c7.3,7.3,18.6-4,11.3-11.3l-32-32c-7.3-7.3-18.6,4-11.3,11.3Z"/><path class="cls-10" d="M822.4,254.8,849.6,282c7.3,7.3,18.6-4,11.3-11.3l-27.2-27.2c-7.3-7.3-18.6,4-11.3,11.3Z"/><path class="cls-10" d="M833.3,77.1l30.8-30.8c7.3-7.3-4-18.6-11.3-11.3L822,65.8c-7.3,7.3,4,18.6,11.3,11.3Z"/><path class="cls-10" d="M652.8,288.4,683,258.2c7.3-7.3-4-18.7-11.3-11.4l-30.2,30.3c-7.3,7.3,4,18.6,11.3,11.3Z"/><circle class="cls-19" cx="146.7" cy="648" r="34.2"/><circle class="cls-19" cx="146.7" cy="567.7" r="26.7"/><path class="cls-10" d="M80,631.1q2.3,71.5,8.2,143c.8,10.1,16.8,10.2,16,0q-5.9-71.4-8.2-143c-.4-10.3-16.4-10.3-16,0Z"/><circle class="cls-19" cx="67" cy="608.5" r="59"/><path class="cls-10" d="M99.4,715.6A587.1,587.1,0,0,0,153.6,652c2.6-3.5.6-8.9-2.9-11s-8.3-.6-10.9,2.9a551,551,0,0,1-51.7,60.4c-7.3,7.4,4,18.7,11.3,11.3Z"/><circle class="cls-19" cx="50.7" cy="689.3" r="16.3"/></svg>