<svg id="Layer_1" data-name="Layer 1" xmlns="http://www.w3.org/2000/svg" xmlns:xlink="http://www.w3.org/1999/xlink" viewBox="0 0 877 889"><defs><style>.cls-1,.cls-2{fill:#fff;}.cls-1,.cls-10,.cls-11,.cls-4,.cls-5,.cls-6,.cls-8{stroke:#42210b;stroke-linecap:round;stroke-linejoin:round;stroke-width:16.01px;}.cls-3{clip-path:url(#clip-path);}.cls-4{fill:#a8d2d8;}.cls-5{fill:#f3cf62;}.cls-6{fill:none;}.cls-7,.cls-8{fill:#eb463f;}.cls-9{fill:#42210b;}.cls-10{fill:#e6e6e6;}.cls-11{fill:#5d8c71;}</style><clipPath id="clip-path"><circle class="cls-1" cx="438.5" cy="438.5" r="430.5"/></clipPath></defs><title>icons001</title><circle class="cls-2" cx="438.5" cy="438.5" r="430.5"/><g class="cls-3"><rect class="cls-4" x="46" y="167" width="785" height="547" rx="82.3"/><rect class="cls-5" x="75" y="202" width="658" height="481" rx="70.6"/><rect class="cls-4" x="389" y="714" width="99" height="121"/><rect class="cls-4" x="322" y="835" width="232" height="46"/></g><circle class="cls-6" cx="438.5" cy="438.5" r="430.5"/><path class="cls-7" d="M125,512.8l48.2-116.5H157.8l41.4,124.6c2.4,7.4,13.2,7.9,15.4,0l12.3-42.5-14.6,1.9,21.2,33.2c3.6,5.6,13,5.1,14.7-1.9a961.1,961.1,0,0,0,24.4-170.5l-15.7,2.1,47.4,177.9c1.9,7.1,14.1,8.1,15.4,0,3.8-24.1,10.1-48,19.7-70.4H325.6q13.3,26.7,26.5,53.6c3.2,6.5,12.8,4.4,14.7-1.9l11.8-39.7L364,464.6l18.1,37.7c3.8,7.8,14.3,3.1,14.9-4.1l16.7-188.5L398,311.9l52.2,194.7c1.5,5.6,9.3,8,13.4,3.5,10.9-11.7,17.7-26.6,21.1-42.1L470,469.9l15.3,34.6c3.5,8,14.4,3.1,14.9-4,.7-8.8,3.9-17.5,10.7-23.3l-12.6-1.6,20.5,34.7c3.7,6.2,12.5,4.5,14.7-1.9A803.9,803.9,0,0,0,568.7,353l-15.8,2.1q27.8,77.3,60.2,152.5c2.4,5.4,11.4,5.1,13.9,0l15.7-33.2H628.9a241.8,241.8,0,0,1,17,30.7c2.9,6.1,13.4,4.7,14.7-1.9q16.2-84.7,26.6-170.5h-16l26.4,198.5c.6,4.3,3.3,8,8,8s8.6-3.6,8-8L687.2,332.7c-1.4-10.3-14.8-10.4-16,0Q660.8,416.3,645.1,499l14.7-1.9a249.4,249.4,0,0,0-17.1-30.8c-3-4.6-11.1-5.8-13.8,0l-15.8,33.2H627q-31.7-73.3-58.6-148.7c-3.2-8.8-14.6-6.7-15.7,2.2A785.4,785.4,0,0,1,518,504.2l14.7-1.9-20.5-34.8c-2.8-4.7-8.7-4.9-12.6-1.6-10.1,8.5-14.4,21.8-15.4,34.6l14.9-4-15.2-34.7c-2.8-6.3-13.3-4.4-14.7,1.9-2.8,12.9-7.9,25.3-16.9,35.1l13.4,3.5L413.4,307.6c-2.4-9.1-14.9-6.5-15.7,2.1L381,498.2l14.9-4-18.1-37.6c-3.1-6.5-12.7-4.3-14.6,1.9l-11.9,39.7,14.7-1.9-26.6-53.7c-2.4-5-11.4-5.5-13.8,0a308.9,308.9,0,0,0-21.3,74.2h15.4L272.3,338.9c-2.4-8.9-15.2-6.7-15.7,2.2a933.7,933.7,0,0,1-23.9,166.3l14.6-1.9-21.2-33.3a8.1,8.1,0,0,0-14.6,2l-12.3,42.5h15.4L173.2,392c-2.6-7.9-12.5-7.1-15.4,0L109.6,508.6c-1.7,4,1.8,8.8,5.6,9.8s8.1-1.6,9.8-5.6Z"/><path class="cls-8" d="M112.1,165.2l37.2,37,70,69.6a59.4,59.4,0,0,0,15.6,11.1,60.2,60.2,0,0,0,5-7.1l55.4-91.5,22.9-37.8a57.8,57.8,0,0,0-98.9-59.9L211,100.4,193.7,83.2a57.9,57.9,0,0,0-81.8.2h0A57.9,57.9,0,0,0,112.1,165.2Z"/><path class="cls-9" d="M118.5,176.7c-18,36.7-7.1,78.8,17.1,110,27.7,35.6,70.8,52.1,114.4,58.1,27,3.7,54.2,4,81.4,3.9,10.3-.1,10.3-16.1,0-16-43.6.2-88.6-.2-129.7-16.5-33.9-13.5-62.5-40.7-72.8-76.3-5.3-18.2-5-37.9,3.4-55.1,4.6-9.2-9.2-17.3-13.8-8.1Z"/><path class="cls-9" d="M324.5,156.9c23.3,7.4,28.8,32.1,30.5,53.8,2.2,27.6.9,55.7-4.8,82.8-3.2,15.3-7.6,30.5-14.9,44.4-4.7,9.2,9.1,17.3,13.8,8.1,14.8-28.2,20.5-61,22.4-92.5A315.6,315.6,0,0,0,371,210c-1.2-13.9-3.4-27.7-9.4-40.4s-18.3-23.5-32.9-28.1c-9.8-3.1-14,12.3-4.2,15.4Z"/><path class="cls-9" d="M335.3,346c16.2,24,47,35.6,75,28.5,14.9-3.7,26.8-13.4,38.2-23.2s20.8-18.6,34.4-20.4c15.6-2,30.6,7.7,36.7,21.8,1.7,4,7.5,4.9,10.9,2.9s4.6-7,2.9-11c-5.9-13.6-18.5-23.8-32.6-27.9s-29.9-1-42.8,7-22.7,19.4-35.1,27.7c-10.9,7.2-23.4,10.5-36.4,8.8-14.8-2-29-9.8-37.4-22.3-5.7-8.5-19.6-.5-13.8,8.1Z"/><circle class="cls-10" cx="561" cy="378" r="41"/><circle class="cls-10" cx="561" cy="378" r="21"/><circle class="cls-10" cx="560" cy="379" r="41"/><circle class="cls-10" cx="560" cy="379" r="15"/><circle class="cls-1" cx="780.9" cy="291" r="27.2"/><circle class="cls-5" cx="780.9" cy="386" r="27.2"/><circle class="cls-11" cx="780.9" cy="480.9" r="27.2"/><circle class="cls-1" cx="780.9" cy="581.7" r="27.2"/></svg>