<svg id="Layer_1" data-name="Layer 1" xmlns="http://www.w3.org/2000/svg" xmlns:xlink="http://www.w3.org/1999/xlink" viewBox="0 0 923.7 972.6"><defs><style>.cls-1,.cls-2{fill:#e6f1f4;}.cls-1,.cls-10,.cls-11,.cls-12,.cls-13,.cls-17,.cls-18,.cls-4,.cls-5,.cls-6,.cls-8{stroke:#42210b;}.cls-1,.cls-13,.cls-18,.cls-4,.cls-6,.cls-8{stroke-miterlimit:10;}.cls-1,.cls-10,.cls-11,.cls-13,.cls-17,.cls-18,.cls-4,.cls-5,.cls-6{stroke-width:16.01px;}.cls-3{clip-path:url(#clip-path);}.cls-4{fill:#f5cebd;}.cls-5{fill:#fff;}.cls-10,.cls-11,.cls-12,.cls-17,.cls-5{stroke-linecap:round;stroke-linejoin:round;}.cls-6{fill:#f3d063;}.cls-10,.cls-7{fill:#eb463f;}.cls-12,.cls-8{fill:#b6dde0;}.cls-8{stroke-width:21.11px;}.cls-9{fill:#42210b;}.cls-11{fill:#ccc;}.cls-12{stroke-width:21.11px;}.cls-13{fill:none;}.cls-14{fill:#fee48e;}.cls-15{fill:#f3cf62;}.cls-16{fill:gray;}.cls-17{fill:#0081a5;}.cls-18{fill:#abd3da;}</style><clipPath id="clip-path"><circle class="cls-1" cx="485.5" cy="438.2" r="430.2"/></clipPath></defs><title>icon003</title><circle class="cls-2" cx="485.5" cy="438.2" r="430.2"/><g class="cls-3"><circle class="cls-4" cx="342.7" cy="465.5" r="45.2"/><circle class="cls-4" cx="644.5" cy="465.5" r="45.2"/><rect class="cls-4" x="460.5" y="561.6" width="70" height="103.61"/><circle class="cls-4" cx="493.6" cy="416.2" r="164.8"/><path class="cls-5" d="M649.1,334.7H319.7L273,202.4c-9.9-28.2,17.8-56,55.9-56H649.3c39.3,0,67.2,29.4,55,58.2Z"/><path class="cls-6" d="M666.5,416.2S586.4,396.4,483.7,400s-172.1,20.3-172.1,20.3V399.2A158.8,158.8,0,0,1,470.3,240.5h35c89,0,161.2,72.2,161.2,161.3Z"/><rect class="cls-7" x="478.9" y="168.6" width="24.1" height="60.81"/><rect class="cls-7" x="478.9" y="168.6" width="24.1" height="60.81" transform="translate(689.9 -292) rotate(90)"/><path class="cls-8" d="M686,962.1H301.1V735.8c0-67.6,74.6-125.3,152.6-125.3,0,0,32,18.1,47.3,17.5,11.8-.4,34.9-17.5,34.9-17.5,78,0,150.1,57.7,150.1,125.3Z"/><path class="cls-9" d="M375.2,628c-7,4.3-6.1,12.7-.6,17.9s11.7,8.6,17.8,11.8a124.6,124.6,0,0,0,40.7,13.2c15.4,2.2,30.8,2,45.2-4.3,12.6-5.5,23-15.2,31.7-25.6,6.5-7.9-4.8-19.3-11.4-11.4s-13.7,15.3-22.7,20.4-21.5,6.8-33.1,6a113.5,113.5,0,0,1-31.4-7.1,101.7,101.7,0,0,1-14.5-7c-3.4-2-10.2-4.9-11.9-8.7l1.1,4.1v.2l-3.7,4.8.9-.5c8.7-5.4.7-19.3-8.1-13.8Z"/><path class="cls-9" d="M496.4,646.1c34.3,36.8,97.7,37,132.7,1.1,7.2-7.4-4.1-18.7-11.3-11.3-29.2,29.8-81.6,29.4-110.1-1.1-7-7.6-18.3,3.8-11.3,11.3Z"/><path class="cls-9" d="M406,462c7.7-8.9,21.9-9.6,30.1-1s18.5-3.9,11.4-11.3c-13.9-14.6-39.6-14.3-52.9,1-6.7,7.7,4.6,19.1,11.4,11.3Z"/><path class="cls-9" d="M540,457.2c7.6-6.3,19.5-5.2,26.3,1.6s18.6-4,11.3-11.3c-13.3-13.3-34.7-13.5-48.9-1.6-7.9,6.7,3.5,17.9,11.3,11.3Z"/><path class="cls-9" d="M467.5,505.3c18.5,14.7,45.3,14.3,62.9-1.9,7.6-7-3.8-18.3-11.3-11.3-10.6,9.8-28.8,11-40.2,1.8-3.4-2.7-8.1-3.3-11.4,0s-3.3,8.6,0,11.4Z"/><path class="cls-9" d="M379.6,806.3V955.8c0,10.3,16,10.3,16,0V806.3c0-10.3-16-10.3-16,0Z"/><path class="cls-9" d="M579.1,804.5V955.8c0,10.3,16,10.3,16,0V804.5c0-10.3-16-10.3-16,0Z"/><rect class="cls-10" x="461.5" y="709" width="183.4" height="237.08" transform="translate(-134.1 107.5) rotate(-9.9)"/><path class="cls-11" d="M565.8,694.6c-4.4-10.9-19.6-17.3-36.2-14.4s-28.8,14.1-29.2,25.8l-21.3,3.8,5,28.7,101.7-17.8-5-28.7Z"/><circle class="cls-4" cx="504.3" cy="766" r="27.5"/><path class="cls-12" d="M490.3,794h190a45.2,45.2,0,0,1,45.2,45.2v10.9a45.2,45.2,0,0,1-45.2,45.2h-190a0,0,0,0,1,0,0V794a0,0,0,0,1,0,0Z" transform="translate(552.2 -194.5) rotate(32.7)"/></g><circle class="cls-13" cx="485.5" cy="438.2" r="430.2"/><rect class="cls-14" x="-43" y="403.6" width="355.2" height="99.62" rx="49.8" transform="translate(416.2 73.4) rotate(53.1)"/><path class="cls-9" d="M211.4,613.3a57.8,57.8,0,0,1-46.3-23L11.6,386a57.8,57.8,0,0,1,54.3-92A57.5,57.5,0,0,1,104,316.5L257.6,520.8a57.7,57.7,0,0,1-46.2,92.5Zm-33.5-32.6a41.9,41.9,0,0,0,66.9-50.3L91.2,326.1a41.1,41.1,0,0,0-27.5-16.2,41.3,41.3,0,0,0-31,7.9,41.8,41.8,0,0,0-8.3,58.6Z"/><rect class="cls-15" x="81.9" y="404.1" width="107.3" height="97.25" transform="translate(416 72.4) rotate(53.1)"/><path class="cls-9" d="M128.9,532.8h-1.2a7.7,7.7,0,0,1-5.2-3.1L58,443.8a8.2,8.2,0,0,1-1.5-5.9,8.1,8.1,0,0,1,3.1-5.3l77.8-58.4a8,8,0,0,1,11.2,1.6L213,461.5a7.9,7.9,0,0,1-1.6,11.2l-77.7,58.5A8.4,8.4,0,0,1,128.9,532.8ZM75.6,440.6l54.9,73,64.9-48.8-54.8-73Z"/><path class="cls-16" d="M741.5,778.9l-7.6,38.9c-2,10.1,13.4,14.4,15.4,4.2l7.7-38.9c1.9-10-13.5-14.3-15.5-4.2Z"/><path class="cls-5" d="M853.6,535.1c.9-3.9,1.8-7.9,2.6-11.9l35.5-180.6c12.5-63.8-1.1-120.2-30.5-125.9h0c-29.4-5.8-63.4,41.2-75.9,105L749.8,502.3c-.7,3.7-1.4,7.4-1.9,11"/><polyline class="cls-5" points="748.1 512 756.1 669.1 731.1 796.5 760.2 802.2 784.3 679.8 853.9 534"/><path class="cls-17" d="M893.9,321.1c5.8-54.4-7.8-99.1-33.8-104.2h0c-26-5.1-55.6,31.1-70.8,83.7Z"/><rect class="cls-18" x="805.1" y="334.9" width="43.1" height="101.45" transform="translate(89.8 -152.1) rotate(11.1)"/></svg>